<?xml version="1.0" standalone="no"?>
<!DOCTYPE svg PUBLIC "-//W3C//DTD SVG 20010904//EN"
 "http://www.w3.org/TR/2001/REC-SVG-20010904/DTD/svg10.dtd">
<svg version="1.0" xmlns="http://www.w3.org/2000/svg"
 width="260.000000pt" height="260.000000pt" viewBox="0 0 260.000000 260.000000"
 preserveAspectRatio="xMidYMid meet">
<metadata>
Created by potrace 1.11, written by Peter Selinger 2001-2013
</metadata>
<g transform="translate(0.000000,260.000000) scale(0.100000,-0.100000)"
fill="#000000" stroke="none">
<path d="M1308 2502 c-66 -3 -68 -4 -69 -30 -1 -15 -1 -30 0 -34 4 -31 1 -517
-4 -529 -15 -40 -87 -39 -100 0 -2 9 -6 143 -7 299 l-2 284 -64 -5 c-35 -3
-66 -8 -69 -10 -7 -8 -12 -120 -19 -467 -6 -296 -6 -307 15 -362 23 -60 79
-124 153 -174 84 -57 91 -72 84 -177 -3 -45 -8 -127 -11 -182 -4 -55 -8 -118
-10 -140 -25 -268 -23 -708 4 -815 25 -99 52 -130 115 -130 112 0 141 98 140
470 -1 205 -8 330 -40 705 -18 204 -20 198 95 285 78 59 112 102 136 170 14
38 15 82 10 295 -3 138 -7 273 -9 300 -2 28 -5 89 -6 137 l-3 88 -31 5 c-80
13 -106 13 -107 -4 -1 -9 -1 -143 0 -298 0 -279 0 -283 -22 -298 -29 -20 -50
-19 -72 5 -17 19 -19 44 -20 310 -1 170 -5 293 -11 298 -5 4 -39 6 -76 4z"/>
</g>
</svg>
